<svg width="207" height="166" viewBox="0 0 207 166" fill="none" xmlns="http://www.w3.org/2000/svg">
<path d="M27.7391 53.0533C38.1941 53.0533 46.6695 44.5779 46.6695 34.1229C46.6695 23.6678 38.1941 15.1924 27.7391 15.1924C17.2841 15.1924 8.80859 23.6678 8.80859 34.1229C8.80859 44.5779 17.2841 53.0533 27.7391 53.0533Z" fill="#F1F1F1"/>
<path d="M137.137 138.343C175.339 138.343 206.308 107.374 206.308 69.1717C206.308 30.9692 175.339 0 137.137 0C98.9341 0 67.9648 30.9692 67.9648 69.1717C67.9648 107.374 98.9341 138.343 137.137 138.343Z" fill="#F1F1F1"/>
<path d="M43.3431 165.402C66.7911 165.402 85.7995 146.394 85.7995 122.946C85.7995 99.4976 66.7911 80.4893 43.3431 80.4893C19.8951 80.4893 0.886719 99.4976 0.886719 122.946C0.886719 146.394 19.8951 165.402 43.3431 165.402Z" fill="#F1F1F1"/>
<path d="M173.456 131.347C173.25 127.095 168.449 63.9248 135.938 45.1315C135.938 45.1315 85.6284 11.2487 43.7207 60.4611C5.85979 104.907 54.4206 119.173 54.4206 119.173L60.0448 110.394L61.5195 116.807L61.2451 142.665H137.653V129.29L146.467 132.033C146.467 132.033 163.202 136.835 167.523 136.286C171.844 135.737 173.662 135.634 173.456 131.347Z" fill="white"/>
<path d="M61.7593 78.1221H60.7305V142.664H61.7593V78.1221Z" fill="#666666"/>
<path d="M176.715 143.35H50.7175C50.4432 143.35 50.2031 143.11 50.2031 142.836C50.2031 142.561 50.4432 142.321 50.7175 142.321H176.715C176.989 142.321 177.229 142.561 177.229 142.836C177.229 143.11 176.989 143.35 176.715 143.35Z" fill="#666666"/>
<path d="M102.571 74.9676C106.586 74.9676 109.841 71.7125 109.841 67.6972C109.841 63.6818 106.586 60.4268 102.571 60.4268C98.5554 60.4268 95.3003 63.6818 95.3003 67.6972C95.3003 71.7125 98.5554 74.9676 102.571 74.9676Z" fill="#EBEBEB"/>
<path d="M102.568 81.1748C95.0922 81.1748 88.9878 75.0704 88.9878 67.5942C88.9878 60.1181 95.0922 54.0137 102.568 54.0137C110.045 54.0137 116.149 60.1181 116.149 67.5942C116.149 75.0704 110.079 81.1748 102.568 81.1748ZM102.568 57.786C97.1498 57.786 92.7602 62.1757 92.7602 67.5942C92.7602 73.0127 97.1498 77.4024 102.568 77.4024C107.987 77.4024 112.377 73.0127 112.377 67.5942C112.377 62.1757 107.987 57.786 102.568 57.786Z" fill="#1D7DEA"/>
<path d="M87.7545 87.4503C87.343 87.4503 86.8971 87.3131 86.5542 87.0387C85.7311 86.3872 85.6282 85.1869 86.2798 84.3981L93.1387 76.0303C93.7903 75.2072 94.9906 75.1043 95.7794 75.7559C96.6024 76.4075 96.7053 77.6078 96.0537 78.3966L89.1949 86.7644C88.8519 87.2102 88.3032 87.4503 87.7545 87.4503Z" fill="#1D7DEA"/>
<path d="M86.4184 73.9379C86.2812 73.9379 86.1097 73.835 86.0755 73.6635C86.0412 73.5263 85.321 70.6113 85.321 67.079C85.2867 62.3464 86.5899 58.8141 89.0248 56.8593C89.1619 56.7564 89.402 56.7564 89.5049 56.9279C89.6078 57.065 89.6078 57.3051 89.4363 57.408C83.8806 61.832 86.6927 73.3891 86.727 73.492C86.7613 73.6635 86.6585 73.8693 86.487 73.9036C86.4527 73.9379 86.4184 73.9379 86.4184 73.9379Z" fill="#A1A1A1"/>
<path d="M22.9711 142.939H15.0148C14.8091 142.939 14.6719 142.802 14.6719 142.596C14.6719 142.39 14.8091 142.253 15.0148 142.253H22.9711C23.1769 142.253 23.314 142.39 23.314 142.596C23.314 142.802 23.1769 142.939 22.9711 142.939Z" fill="#666666"/>
<path d="M128.531 32.5459C128.531 32.5459 156.241 44.5489 164.54 69.138L128.531 32.5459Z" fill="#F1F1F1"/>
<path d="M164.539 69.515C164.402 69.515 164.265 69.4122 164.231 69.275C156.034 45.1318 128.667 32.9916 128.393 32.8887C128.222 32.8201 128.153 32.6143 128.222 32.4429C128.29 32.2714 128.496 32.2028 128.667 32.2714C128.736 32.3057 135.732 35.3579 143.62 41.3937C150.924 46.9837 160.527 56.3117 164.848 69.0692C164.917 69.2407 164.814 69.4465 164.642 69.515C164.608 69.515 164.574 69.515 164.539 69.515Z" fill="#A1A1A1"/>
<path d="M133.332 110.942L143.654 80.489L104.113 69.1719L85.7656 127.747L124.895 138.344L133.332 110.942Z" fill="#F1F1F1"/>
<path d="M125.137 138.755L124.828 138.652L85.3555 127.986L103.909 68.7256L144.136 80.2485L144.033 80.5914L133.71 111.045L125.137 138.755ZM86.2128 127.506L124.657 137.932L133.025 110.839L143.21 80.7286L104.355 69.5829L86.2128 127.506Z" fill="#666666"/>
<path d="M77.4978 36.1807C77.4978 36.1807 25.1303 50.8929 23.8957 121.642C22.6954 189.751 74.0683 105.935 74.0683 105.935L66.8322 96.1272L50.6796 106.381" fill="white"/>
<path d="M33.4995 148.803C32.8136 148.803 32.162 148.7 31.5104 148.529C25.7489 146.848 23.1083 138.035 23.3826 121.608C23.657 105.387 26.6749 90.8114 32.3334 78.1911C36.8603 68.1086 43.0676 59.2949 50.8181 51.9559C63.9871 39.5071 77.2247 35.6661 77.3619 35.6318L77.6363 36.6264C77.4991 36.6607 64.4672 40.433 51.4697 52.7447C43.8221 59.9808 37.7177 68.6916 33.2251 78.6369C27.6351 91.0858 24.6515 105.558 24.3772 121.608C24.1028 137.28 26.572 146.025 31.7504 147.534C37.3061 149.146 46.257 142.459 57.7113 128.192C65.6675 118.281 72.2521 107.821 73.4181 105.935L66.6964 96.8129L50.9553 106.827L50.4066 105.97L66.9707 95.4412L74.687 105.901L74.5155 106.21C73.3838 107.993 48.2117 148.803 33.4995 148.803Z" fill="#666666"/>
<path d="M81.9559 101.546C81.853 101.546 81.7844 101.546 81.6815 101.546L72.0105 101.203L72.0448 100.174L81.7158 100.517C83.3963 100.585 84.9738 99.968 86.2084 98.8363C87.5802 97.5331 89.1234 95.6812 90.8381 93.3149C91.9355 91.806 92.2442 90.5714 91.7641 89.5768C90.5981 87.1076 84.9395 86.6275 83.2591 86.5589C82.2645 86.4903 81.27 86.799 80.4469 87.3477L67.1064 96.5386L66.5234 95.6812L79.8639 86.4903C80.8585 85.8044 82.0931 85.4615 83.3277 85.5301C90.1522 85.9073 92.1413 87.965 92.7243 89.131C93.3759 90.4685 93.033 92.0803 91.6955 93.8979C89.9465 96.3328 88.3346 98.219 86.9286 99.5565C85.5568 100.86 83.8078 101.546 81.9559 101.546Z" fill="#666666"/>
<path d="M128.528 112.793C128.528 112.793 114.879 101.579 106.82 108.815C106.066 109.501 105.551 110.358 105.311 111.319C104.522 114.645 104.694 122.43 124.31 120.955" fill="white"/>
<path d="M119.683 121.642C112.961 121.642 108.434 120.304 106.136 117.629C104.284 115.434 104.387 112.931 104.799 111.182C105.039 110.119 105.622 109.159 106.445 108.404C109.909 105.283 114.881 105.009 120.849 107.581C125.273 109.501 128.668 112.245 128.805 112.348L128.153 113.137C128.016 113.034 114.744 102.265 107.131 109.159C106.445 109.776 105.999 110.53 105.793 111.388C105.451 112.897 105.348 115.091 106.925 116.943C109.429 119.858 115.396 121.059 124.244 120.407L124.312 121.436C122.701 121.607 121.157 121.642 119.683 121.642Z" fill="#666666"/>
<path d="M168.242 136.8C163.921 136.8 156.856 135.428 146.945 132.719C135.594 129.598 124.585 125.757 124.482 125.723L124.036 125.551L127.775 112.76L155.965 113.926L155.93 114.954L128.529 113.823L125.305 124.9C127.5 125.654 137.24 128.981 147.254 131.724C166.939 137.143 171.363 135.977 172.254 134.811C175.512 130.49 167.247 99.2476 163.818 87.5876C160.869 76.2018 156.033 66.3251 149.483 58.2659C144.236 51.8186 137.891 46.503 130.587 42.4219C118.138 35.4945 107.095 34.6714 106.992 34.6714L107.061 33.6426C107.164 33.6426 118.378 34.4656 131.033 41.496C138.474 45.6113 144.922 51.0298 150.272 57.58C156.925 65.7764 161.829 75.756 164.812 87.3132C164.847 87.4161 167.968 98.013 170.54 109.124C171.843 114.749 175.821 131.827 173.077 135.462C172.357 136.32 170.745 136.8 168.242 136.8Z" fill="#666666"/>
<path d="M149.69 142.801L149.347 121.265H160.595L160.149 142.801H149.69Z" fill="white"/>
<path d="M160.493 143.145H149.347L149.004 120.922H160.938L160.493 143.145ZM150.033 142.459H159.841L160.252 121.608H149.69L150.033 142.459Z" fill="#666666"/>
<path d="M149.791 126.375H160.148L160.251 121.574H149.723L149.791 126.375Z" fill="#FEB834"/>
<path d="M97.0139 49.0412C96.4652 47.3608 95.1963 46.4006 93.2072 46.2291C91.664 46.0919 90.2579 46.4692 90.2579 46.4692L90.0864 45.8176C90.155 45.7833 96.1908 44.1371 97.6655 48.8355L97.0139 49.0412Z" fill="#666666"/>
<path d="M94.0301 52.471C83.8446 52.471 78.9748 38.1702 78.9062 38.0331L79.5578 37.8273C79.6264 37.9988 84.3248 51.7851 94.0301 51.8194C95.1275 51.8194 96.2935 51.6479 97.4938 51.2707C108.296 47.8413 105.381 35.461 105.347 35.3238L105.999 35.1523C106.033 35.2895 109.085 48.2871 97.6995 51.9223C96.4307 52.2995 95.1961 52.471 94.0301 52.471Z" fill="#666666"/>
<path d="M107.165 35.5291L106.856 35.9749C105.999 36.8323 104.662 38.1698 103.804 38.9928C103.358 39.3015 102.947 39.6101 102.501 39.8845C102.398 39.9531 102.295 40.0217 102.192 40.056C98.3858 41.9422 94.5791 41.7021 90.7382 40.1589C90.4638 40.056 90.1894 39.8502 89.9837 39.6444C89.4693 39.1643 88.9549 38.8557 88.3718 39.8502C87.7203 44.4114 85.9027 40.2617 84.8395 39.3358C84.5995 39.13 84.4623 38.8557 84.2908 38.6156C83.8793 37.9983 83.2963 37.7925 82.7476 37.964C82.4046 38.0669 82.336 38.9243 82.6104 39.8159C82.6104 39.8159 82.8847 40.3646 82.9533 40.639C83.6049 42.4909 83.9479 44.4113 83.6392 46.4004L83.6735 46.3661C80.4841 43.6569 79.0438 40.639 77.8092 37.141C77.4662 36.4208 77.2948 35.8378 77.2262 34.8089C77.1919 34.3288 77.1919 33.1971 77.1919 32.3054C77.1919 32.2026 77.1919 32.0654 77.1919 31.9625C77.9121 24.8293 81.1014 19.6508 88.4061 17.8332C88.6119 17.7646 88.8177 17.7646 89.0577 17.7646C92.007 17.8332 94.9564 17.8332 97.8028 18.8964C104.456 21.3656 107.851 25.8581 107.988 32.6141C107.748 33.6429 107.474 34.5346 107.165 35.5291Z" fill="black"/>
<path fill-rule="evenodd" clip-rule="evenodd" d="M63.3362 11.2616C60.4898 11.4674 58.3293 13.9709 58.5008 16.8173C58.5008 17.0573 58.7408 17.2631 58.9809 17.2631C59.2209 17.2631 59.4267 17.0231 59.4267 16.783C59.2552 14.4167 61.0385 12.359 63.4048 12.1876C65.7711 12.0161 67.8288 13.7994 67.966 16.1657C68.0003 16.9202 67.966 17.5032 67.7945 17.9833C67.623 18.4634 67.3144 18.875 66.6971 19.3208C64.8452 20.6583 63.8164 21.5156 63.3362 22.8188C62.8561 24.0877 62.959 25.5966 63.1305 28.1687C63.1305 28.4088 63.3705 28.6145 63.6106 28.6145C63.8507 28.6145 64.0564 28.3745 64.0564 28.1344C63.885 25.5623 63.8164 24.1906 64.1936 23.1617C64.5708 22.1329 65.3939 21.4127 67.2115 20.1095C67.9317 19.5951 68.4118 19.0121 68.6519 18.3605C68.8919 17.7089 68.9262 16.9887 68.8919 16.1657C68.7205 13.2164 66.217 11.0558 63.3362 11.2616Z" fill="#A1A1A1"/>
<path d="M63.6109 28.7172C63.268 28.7172 62.9936 28.4429 62.9936 28.1343C62.8221 25.5965 62.685 24.0532 63.1994 22.7157C63.6795 21.4126 64.674 20.5209 66.5945 19.1492C67.1432 18.7376 67.4519 18.3604 67.6233 17.8802C67.7948 17.4687 67.8291 16.92 67.7948 16.1312C67.7262 15.0681 67.2461 14.0736 66.423 13.3534C65.6 12.6332 64.5026 12.256 63.4051 12.3246C61.1417 12.496 59.427 14.4508 59.5985 16.7142C59.5985 16.8857 59.5642 17.0572 59.427 17.1944C59.3241 17.3315 59.1526 17.4001 58.9812 17.4001C58.8097 17.4001 58.6382 17.3658 58.5353 17.2287C58.4325 17.0915 58.3296 16.9543 58.3296 16.7828C58.1238 13.8335 60.3529 11.2614 63.3023 11.0557C64.7426 10.9528 66.1487 11.4329 67.2461 12.3931C68.3092 13.3534 68.9608 14.6223 69.0294 16.0626C69.0637 16.7485 69.0637 17.5716 68.7894 18.3261C68.515 19.0463 68.0349 19.6293 67.2804 20.178C65.5657 21.4126 64.7083 22.167 64.3311 23.1616C63.9539 24.1561 64.0224 25.665 64.1939 28.0314C64.2282 28.4086 63.9538 28.683 63.6109 28.7172C63.6452 28.7172 63.6452 28.7172 63.6109 28.7172ZM63.7138 11.9816C64.8112 11.9816 65.84 12.3589 66.6631 13.079C67.5548 13.8678 68.0692 14.9309 68.1378 16.097C68.1721 16.92 68.1378 17.503 67.9663 17.9831C67.7605 18.5319 67.4176 18.9434 66.8003 19.3892C64.9484 20.7267 63.9538 21.584 63.508 22.7844C63.0279 24.0532 63.1308 25.5622 63.3366 28.0657C63.3366 28.2372 63.4737 28.34 63.6452 28.34C63.8167 28.34 63.9196 28.2028 63.9196 28.0314C63.7138 25.3907 63.6795 24.0189 64.0567 22.9901C64.4683 21.8927 65.3599 21.1039 67.1432 19.835C67.8291 19.3549 68.2749 18.8062 68.515 18.1546C68.7551 17.4687 68.7551 16.68 68.7208 16.0284C68.6522 14.6909 68.0349 13.4906 67.0403 12.5989C66.0115 11.7073 64.7083 11.2614 63.3366 11.3643C60.5587 11.5701 58.4668 13.9707 58.6725 16.7485C58.6725 16.8171 58.7068 16.8857 58.7754 16.9543C58.844 16.9886 58.9126 17.0229 58.9812 17.0229C59.0498 17.0229 59.1183 16.9886 59.1869 16.92C59.2212 16.8514 59.2555 16.7828 59.2555 16.7142C59.0841 14.2451 60.9359 12.1188 63.3708 11.9473C63.508 11.9816 63.6109 11.9816 63.7138 11.9816Z" fill="#A1A1A1"/>
<path fill-rule="evenodd" clip-rule="evenodd" d="M63.7138 29.8149C63.268 29.8492 62.8907 30.2607 62.925 30.7065C62.9593 31.1523 63.3708 31.5296 63.8167 31.4953C64.2625 31.461 64.6397 31.0494 64.6054 30.6036C64.5711 30.1235 64.1596 29.7806 63.7138 29.8149ZM63.7824 30.5693C63.8167 30.5693 63.851 30.6036 63.851 30.6379C63.851 30.6722 63.8167 30.7065 63.7824 30.7065C63.7481 30.7065 63.7138 30.6722 63.7138 30.6379C63.7138 30.6036 63.7481 30.5693 63.7824 30.5693Z" fill="#A1A1A1"/>
<path d="M63.7822 31.6667C63.5421 31.6667 63.3021 31.5638 63.1306 31.4266C62.9248 31.2551 62.7876 31.015 62.7876 30.7407C62.7533 30.192 63.1649 29.7119 63.7136 29.6433C63.9879 29.609 64.228 29.7119 64.4338 29.8833C64.6395 30.0548 64.7767 30.2949 64.7767 30.5692C64.811 31.1179 64.3995 31.5981 63.8508 31.6667C63.8165 31.6667 63.8165 31.6667 63.7822 31.6667ZM63.7822 29.9862H63.7479C63.3706 30.0205 63.0963 30.3292 63.1306 30.7064C63.1306 30.8779 63.2335 31.0494 63.3706 31.1522C63.5078 31.2551 63.6793 31.3237 63.8508 31.3237C64.228 31.2894 64.5024 30.9807 64.4681 30.6035C64.4681 30.432 64.3652 30.2606 64.228 30.1577C64.0908 30.0205 63.9536 29.9862 63.7822 29.9862ZM63.7822 30.9122C63.645 30.9122 63.5421 30.8093 63.5421 30.6721C63.5421 30.5349 63.645 30.432 63.7822 30.3977C63.9194 30.3977 64.0565 30.5007 64.0565 30.6378C64.0565 30.7064 64.0222 30.775 63.9879 30.8093C63.9194 30.8779 63.8508 30.8779 63.7822 30.9122ZM63.7822 30.5692C63.7479 30.5692 63.7136 30.5692 63.7136 30.6035C63.7136 30.6378 63.6793 30.6378 63.6793 30.6721C63.6793 30.7407 63.7136 30.775 63.7822 30.775V30.5692V30.7407C63.8508 30.7407 63.8851 30.7064 63.8851 30.6378C63.8851 30.6035 63.8508 30.5692 63.7822 30.5692Z" fill="#A1A1A1"/>
<path d="M137.994 129.016H137.309V142.665H137.994V129.016Z" fill="#666666"/>
<path d="M137.994 108.747H137.309V113.788H137.994V108.747Z" fill="#666666"/>
<path d="M134.36 114.097L128.53 113.754L125.238 124.9L130.21 126.546L134.36 114.097Z" fill="white"/>
</svg>
