<svg width="5" height="8" viewBox="0 0 5 8" fill="none" xmlns="http://www.w3.org/2000/svg">
<path d="M4.47901 4.12299C4.48288 4.11552 4.48728 4.10832 4.49048 4.10059C4.49394 4.09219 4.49594 4.08352 4.49848 4.07485C4.50074 4.06699 4.50354 4.05925 4.50514 4.05125C4.50674 4.04272 4.50714 4.03405 4.50808 4.02539C4.50888 4.01699 4.51008 4.00872 4.51008 4.00032C4.51008 3.99192 4.50888 3.98365 4.50808 3.97525C4.50728 3.96659 4.50688 3.95792 4.50514 3.94939C4.50354 3.94139 4.50088 3.93365 4.49848 3.92579C4.49594 3.91712 4.49381 3.90845 4.49048 3.90005C4.48728 3.89232 4.48301 3.88512 4.47901 3.87765C4.47488 3.86965 4.47114 3.86152 4.46608 3.85392C4.46128 3.84659 4.45501 3.83992 4.44941 3.83285C4.44448 3.82685 4.44048 3.82032 4.43501 3.81459L1.19621 0.481253C1.09341 0.375653 0.924743 0.373119 0.819143 0.475786C0.713543 0.578453 0.71101 0.747253 0.813677 0.852853L3.87194 4.00019L0.813677 7.14765C0.71101 7.25325 0.713543 7.42205 0.819143 7.52472C0.870877 7.57512 0.937943 7.60019 1.00488 7.60019C1.07434 7.60019 1.14381 7.57312 1.19621 7.51939L4.43501 4.18605C4.44048 4.18032 4.44461 4.17392 4.44941 4.16779C4.45514 4.16085 4.46128 4.15419 4.46608 4.14672C4.47114 4.13912 4.47488 4.13099 4.47901 4.12299Z" fill="#666666" stroke="#666666" stroke-width="0.3"/>
</svg>
