<svg width="13" height="11" viewBox="0 0 13 11" fill="none" xmlns="http://www.w3.org/2000/svg">
<g clip-path="url(#clip0)">
<path d="M6.52098 4.70215H3.00604C2.90776 4.70215 2.82812 4.77246 2.82812 4.85918C2.82812 4.94592 2.90778 5.0162 3.00604 5.0162H6.52098C6.61923 5.0162 6.69889 4.94592 6.69889 4.85918C6.69889 4.77246 6.61923 4.70215 6.52098 4.70215Z" fill="#666666"/>
<path d="M9.33757 4.45963C9.28861 4.38446 9.17985 4.35856 9.09466 4.40178L8.26188 4.82445L8.33838 4.57968C8.3645 4.49608 8.30889 4.40961 8.21417 4.38656C8.11938 4.36348 8.02148 4.41258 7.99536 4.49618L7.89801 4.80766C7.86297 4.91976 7.90764 5.0382 8.01178 5.10941C8.1107 5.17704 8.2569 5.18928 8.37128 5.1312L9.27203 4.67404C9.35722 4.63081 9.38656 4.53481 9.33757 4.45963Z" fill="#666666"/>
<path d="M6.52098 5.89844H3.00604C2.90778 5.89844 2.82812 5.96874 2.82812 6.05547C2.82812 6.14219 2.90776 6.21249 3.00604 6.21249H6.52098C6.61923 6.21249 6.69889 6.14221 6.69889 6.05547C6.69889 5.96874 6.61923 5.89844 6.52098 5.89844Z" fill="#666666"/>
<path d="M9.33757 5.6569C9.28861 5.58172 9.17984 5.55582 9.09466 5.59906L8.26188 6.02173L8.33838 5.77696C8.36452 5.69336 8.30889 5.60689 8.21417 5.58383C8.11938 5.56076 8.02148 5.60986 7.99536 5.69346L7.89801 6.00494C7.86297 6.11704 7.90764 6.23548 8.0118 6.30669C8.11103 6.37453 8.25656 6.38671 8.37131 6.32848L9.27205 5.87132C9.35721 5.82809 9.38656 5.73209 9.33757 5.6569Z" fill="#666666"/>
<path d="M6.52098 7.0957H3.00604C2.90778 7.0957 2.82812 7.16601 2.82812 7.25273C2.82812 7.33945 2.90776 7.40976 3.00604 7.40976H6.52098C6.61923 7.40976 6.69889 7.33945 6.69889 7.25273C6.69889 7.16601 6.61923 7.0957 6.52098 7.0957Z" fill="#666666"/>
<path d="M9.33757 6.8532C9.28861 6.77804 9.17984 6.75212 9.09466 6.79535L8.26188 7.21803L8.33838 6.97323C8.36452 6.88963 8.30889 6.80316 8.21417 6.78011C8.11938 6.75704 8.02148 6.80614 7.99536 6.88974L7.89801 7.20122C7.86297 7.31331 7.90764 7.43176 8.0118 7.50298C8.11511 7.5736 8.25806 7.58223 8.37128 7.52478L9.27203 7.06762C9.35721 7.02438 9.38656 6.92839 9.33757 6.8532Z" fill="#666666"/>
<path d="M9.798 0C9.798 0 4.89812 0 4.89577 0C4.84921 0 4.80297 0.016959 4.76998 0.0459778C4.76998 0.0459778 1.63862 2.80972 1.63796 2.81032C1.60553 2.83942 1.58594 2.88048 1.58594 2.92127V8.70581C1.58594 8.79253 1.6656 8.86284 1.76385 8.86284C1.86211 8.86284 1.94177 8.79253 1.94177 8.70581V3.0783H4.19726C4.58993 3.0783 4.9231 2.8492 5.03424 2.5345C5.06045 2.46027 5.07371 2.38245 5.07371 2.30471V0.314056H9.79802C10.0229 0.314056 10.2059 0.475649 10.2059 0.674258V2.80155C10.2059 2.88827 10.2856 2.95858 10.3838 2.95858C10.4821 2.95858 10.5617 2.88827 10.5617 2.80155V0.674258C10.5617 0.302478 10.2191 0 9.798 0ZM4.71788 2.30473C4.71788 2.55388 4.48138 2.76424 4.19726 2.76424H2.19339L4.71788 0.536115C4.71788 0.536115 4.71788 2.30467 4.71788 2.30473Z" fill="#666666"/>
<path d="M10.3838 3.27344C10.2855 3.27344 10.2059 3.34374 10.2059 3.43047V10.0465C10.2059 10.245 10.0229 10.4065 9.798 10.4065H2.34967C2.12476 10.4065 1.94179 10.245 1.94179 10.0465V9.33473C1.94177 9.248 1.86211 9.1777 1.76385 9.1777C1.6656 9.1777 1.58594 9.248 1.58594 9.33473V10.0465C1.58594 10.4182 1.92853 10.7206 2.34964 10.7206H9.798C10.2191 10.7206 10.5617 10.4182 10.5617 10.0465V3.43047C10.5617 3.34374 10.482 3.27344 10.3838 3.27344Z" fill="#666666"/>
</g>
<defs>
<clipPath id="clip0">
<rect width="12.1457" height="10.7198" fill="white"/>
</clipPath>
</defs>
</svg>
