<svg width="19" height="19" viewBox="0 0 19 19" fill="none" xmlns="http://www.w3.org/2000/svg">
<path d="M18.3033 16.5076L11.0365 9.33333L18.2806 2.15904C18.7121 1.68675 18.7121 0.989558 18.2806 0.584739C18.0535 0.359839 17.7583 0.24739 17.4404 0.24739C17.1452 0.24739 16.8727 0.382329 16.6683 0.584739L9.42417 7.75904L1.95296 0.337349C1.72587 0.11245 1.43066 0 1.11273 0C0.817518 0 0.545012 0.13494 0.340633 0.337349C0.136253 0.562249 0 0.854619 0.0227088 1.14699C0.0227088 1.43936 0.158962 1.70924 0.363341 1.91165L7.83455 9.33333L0.340633 16.755C0.113544 16.9799 0 17.2723 0 17.5872C0 17.8795 0.136253 18.1494 0.340633 18.3518C0.499595 18.4867 0.749392 18.6667 1.13544 18.6667C1.5442 18.6667 1.794 18.4867 1.95296 18.3518L9.44688 10.9301L16.691 18.1044C16.85 18.2618 17.0998 18.4193 17.5085 18.4193C17.9173 18.4193 18.1671 18.2394 18.326 18.1044C18.5531 17.8795 18.6667 17.5871 18.6667 17.2723C18.644 16.9799 18.5304 16.71 18.3033 16.5076Z" fill="#999999" fill-opacity="0.79"/>
</svg>
