<svg width="21" height="21" viewBox="0 0 21 21" fill="none" xmlns="http://www.w3.org/2000/svg">
<path d="M2.80286 0.349609C1.45615 0.349609 0.349609 1.45615 0.349609 2.80286V6.89534C0.349609 8.24205 1.45615 9.35659 2.80286 9.35659H6.90174C8.24845 9.35659 9.35499 8.24205 9.35499 6.89534V2.80286C9.35499 1.45615 8.24845 0.349609 6.90174 0.349609H2.80286ZM13.4475 0.349609C12.1008 0.349609 10.9942 1.45615 10.9942 2.80286V6.89534C10.9942 8.24205 12.1008 9.35659 13.4475 9.35659H17.5464C18.8931 9.35659 19.9996 8.24205 19.9996 6.89534V2.80286C19.9996 1.45615 18.8931 0.349609 17.5464 0.349609H13.4475ZM2.80286 1.98724H6.90174C7.36953 1.98724 7.71736 2.33507 7.71736 2.80286V6.89534C7.71736 7.36313 7.36953 7.71736 6.90174 7.71736H2.80286C2.33507 7.71736 1.98724 7.36313 1.98724 6.89534V2.80286C1.98724 2.33507 2.33507 1.98724 2.80286 1.98724ZM13.4475 1.98724H17.5464C18.0141 1.98724 18.362 2.33507 18.362 2.80286V6.89534C18.362 7.36313 18.0141 7.71736 17.5464 7.71736H13.4475C12.9797 7.71736 12.6319 7.36313 12.6319 6.89534V2.80286C12.6319 2.33507 12.9797 1.98724 13.4475 1.98724ZM2.80286 10.9942C1.45615 10.9942 0.349609 12.1008 0.349609 13.4475V17.5464C0.349609 18.8931 1.45615 19.9996 2.80286 19.9996H6.90174C8.24845 19.9996 9.35499 18.8931 9.35499 17.5464V13.4475C9.35499 12.1008 8.24845 10.9942 6.90174 10.9942H2.80286ZM13.4475 10.9942C12.1008 10.9942 10.9942 12.1008 10.9942 13.4475V17.5464C10.9942 18.8931 12.1008 19.9996 13.4475 19.9996H17.5464C18.8931 19.9996 19.9996 18.8931 19.9996 17.5464V13.4475C19.9996 12.1008 18.8931 10.9942 17.5464 10.9942H13.4475ZM2.80286 12.6319H6.90174C7.36953 12.6319 7.71736 12.9797 7.71736 13.4475V17.5464C7.71736 18.0141 7.36953 18.362 6.90174 18.362H2.80286C2.33507 18.362 1.98724 18.0141 1.98724 17.5464V13.4475C1.98724 12.9797 2.33507 12.6319 2.80286 12.6319ZM13.4475 12.6319H17.5464C18.0141 12.6319 18.362 12.9797 18.362 13.4475V17.5464C18.362 18.0141 18.0141 18.362 17.5464 18.362H13.4475C12.9797 18.362 12.6319 18.0141 12.6319 17.5464V13.4475C12.6319 12.9797 12.9797 12.6319 13.4475 12.6319Z" fill="#767676" stroke="#767676" stroke-width="0.3"/>
</svg>
