<svg width="41" height="56" viewBox="0 0 41 56" fill="none" xmlns="http://www.w3.org/2000/svg">
<path d="M33.3453 13.1109V25.375H20.2344V22.0938H30.064V13.1109C30.064 7.69128 25.6548 3.28125 20.2344 3.28125V0C27.4642 0 33.3453 5.88104 33.3453 13.1109Z" fill="#C9C9D6"/>
<path d="M38.2812 22.0938V45.7679C38.2812 51.4097 33.6909 56 28.0491 56H12.4196C6.77783 56 2.1875 51.4097 2.1875 45.7679V22.0938H38.2812Z" fill="#F21D1D"/>
<path d="M20.2339 0C13.0041 0 7.12305 5.88104 7.12305 13.1109V25.375H33.3448V13.1109C33.3448 5.88104 27.4638 0 20.2339 0ZM30.0636 22.0938H10.4043V13.1109C10.4043 7.69128 14.8135 3.28125 20.2339 3.28125C25.6544 3.28125 30.0636 7.69128 30.0636 13.1109V22.0938Z" fill="#C9C9D6"/>
<path d="M40.4688 23.7344C40.4688 24.6401 39.7339 25.375 38.8281 25.375H1.64062C0.734863 25.375 0 24.6401 0 23.7344C0 22.8286 0.734863 22.0938 1.64062 22.0938H38.8281C39.7339 22.0938 40.4688 22.8286 40.4688 23.7344Z" fill="#ECECF1"/>
<path d="M27.5783 33.2307C25.6173 31.2683 23.0089 30.1865 20.234 30.1865C17.459 30.1865 14.8507 31.2683 12.8896 33.2307C8.84018 37.2818 8.84018 43.8751 12.8896 47.9262C14.8507 49.8885 17.459 50.9703 20.234 50.9703C23.0089 50.9703 25.6173 49.8885 27.5783 47.9262C31.6278 43.8751 31.6278 37.2818 27.5783 33.2307ZM20.234 47.6891C18.3362 47.6891 16.5524 46.9495 15.2104 45.6063C12.8174 43.212 12.4901 39.5206 14.2303 36.7734L20.234 42.7792L24.039 46.5864C22.9115 47.3037 21.6024 47.6891 20.234 47.6891ZM26.3282 44.2361L20.234 38.1371L16.5776 34.4786C17.6701 33.8203 18.9249 33.4678 20.234 33.4678C22.1318 33.4678 23.9156 34.2073 25.2575 35.5506C27.6082 37.9022 27.9646 41.5038 26.3282 44.2361Z" fill="white"/>
<path d="M27.5787 47.9262C25.6177 49.8885 23.0093 50.9703 20.2344 50.9703V47.6891C21.6028 47.6891 22.9119 47.3037 24.0394 46.5864L20.2344 42.7792V38.1371L26.3286 44.2361C27.965 41.5038 27.6086 37.9022 25.2579 35.5506C23.916 34.2073 22.1322 33.4678 20.2344 33.4678V30.1865C23.0093 30.1865 25.6177 31.2683 27.5787 33.2307C31.6282 37.2818 31.6282 43.8751 27.5787 47.9262Z" fill="white"/>
<path d="M40.4688 23.7344C40.4688 24.6401 39.7339 25.375 38.8281 25.375H20.2344V22.0938H38.8281C39.7339 22.0938 40.4688 22.8286 40.4688 23.7344Z" fill="#ECECF1"/>
</svg>
