<svg width="149" height="160" viewBox="0 0 149 160" fill="none" xmlns="http://www.w3.org/2000/svg">
<path fill-rule="evenodd" clip-rule="evenodd" d="M22.434 158.373C22.434 158.373 25.9985 103.347 48.1217 78.8117C60.8969 64.6439 65.8841 60.908 67.8178 60.2804C68.9591 59.9099 68.6802 61.5332 68.0506 62.5547C65.1688 67.2306 56.391 82.1838 49.6837 101.149C41.5439 124.165 45.7668 158.375 45.7668 158.375L22.434 158.373Z" fill="#1D7DEA"/>
<path fill-rule="evenodd" clip-rule="evenodd" d="M130.33 92.5457C120.259 123.542 87.001 140.516 56.0468 130.459C53.6968 129.695 51.4276 128.798 49.2449 127.777C49.2988 127.365 49.3526 126.95 49.4067 126.532C50.2173 120.276 51.1087 113.397 53.4619 106.954C56.2226 108.746 59.2606 110.211 62.5398 111.277C82.7442 117.842 104.452 106.762 111.026 86.5303C117.6 66.2984 106.55 44.5753 86.3454 38.0105C66.141 31.4457 44.433 42.5251 37.8592 62.757C35.0933 71.2698 35.4474 80.0466 38.2907 87.8472C32.6274 93.9782 28.7503 101.184 26.1018 108.365C15.7863 93.6956 12.2616 74.5079 18.235 56.1238C28.3063 25.1275 61.564 8.15332 92.5182 18.2109C123.472 28.2686 140.401 61.5494 130.33 92.5457Z" fill="#1D7DEA"/>
</svg>
