<svg width="96" height="46" viewBox="0 0 96 46" fill="none" xmlns="http://www.w3.org/2000/svg">
<path fill-rule="evenodd" clip-rule="evenodd" d="M62.4685 16.1357C60.3643 22.6116 53.416 26.158 46.9488 24.0567C46.4577 23.8972 45.9836 23.7096 45.5276 23.4965C45.5389 23.4104 45.55 23.3235 45.5614 23.2361C45.7308 21.9293 45.917 20.4924 46.4083 19.1463C46.9852 19.5209 47.6199 19.827 48.305 20.0495C52.5262 21.4211 57.0616 19.1063 58.435 14.8794C59.8085 10.6524 57.4999 6.11385 53.2787 4.7423C49.0574 3.37075 44.522 5.68552 43.1486 9.9125C42.5707 11.6909 42.6447 13.5245 43.2385 15.1542C42.0556 16.435 41.2457 17.9404 40.6924 19.4406C38.5373 16.3757 37.801 12.367 39.0489 8.5262C41.1531 2.05023 48.1015 -1.49612 54.5687 0.605138C61.0358 2.7065 64.5727 9.65976 62.4685 16.1357Z" fill="white"/>
<path fill-rule="evenodd" clip-rule="evenodd" d="M40.3918 30.9975C40.1393 30.9975 39.9402 30.7883 39.9627 30.5368C40.1584 28.3448 41.2217 18.8893 45.2924 14.3749C48.5082 10.8085 49.362 10.406 49.5838 10.4913C49.7062 10.5383 49.6203 10.7151 49.5506 10.8262C49.0753 11.5839 47.104 14.842 45.6187 19.0417C44.185 23.0959 44.5871 28.8123 44.7486 30.5065C44.7735 30.768 44.5686 30.9978 44.3059 30.9978L40.3918 30.9975Z" fill="white"/>
<path fill-rule="evenodd" clip-rule="evenodd" d="M7.92117 25.6947C7.89768 25.9767 7.88587 26.1941 7.88587 26.3468C7.88587 26.7111 7.90642 27.0871 7.9475 27.4749C7.98859 27.8627 8.07076 28.2182 8.19401 28.5413C8.31716 28.8645 8.49024 29.1288 8.71326 29.3345C8.93617 29.5401 9.23546 29.6429 9.61091 29.6429C10.1038 29.6429 10.5381 29.5578 10.9135 29.3874C11.2891 29.217 11.6293 28.8851 11.9345 28.3915L15.5078 19.2787H15.7717C15.6779 20.1247 15.6046 20.962 15.5518 21.7904C15.499 22.6189 15.4726 23.4032 15.4726 24.1435C15.4726 24.9309 15.5107 25.6594 15.587 26.3292C15.6632 26.9991 15.7895 27.5807 15.9654 28.0743C16.1414 28.5677 16.3732 28.9526 16.6608 29.2287C16.9483 29.5049 17.3032 29.6429 17.7257 29.6429C18.5823 29.6429 19.351 29.5284 20.0316 29.2993C20.7123 29.0702 21.3371 28.7763 21.9062 28.4179C22.1535 28.2622 22.3952 28.0988 22.6315 27.9275C22.7417 28.0762 22.8596 28.2162 22.9853 28.3474C23.396 28.7763 23.8683 29.1053 24.4023 29.3345C24.9362 29.5636 25.4848 29.6782 26.0481 29.6782C26.6935 29.6782 27.3595 29.5049 28.046 29.1582C28.7324 28.8116 29.3925 28.3563 30.0262 27.7922L29.551 29.4315C28.706 30.1247 27.87 30.8533 27.0426 31.6171C26.2153 32.3809 25.4232 33.1565 24.6663 33.9438C23.9094 34.7311 23.2082 35.5213 22.5629 36.3145C21.9174 37.1077 21.36 37.8715 20.8906 38.606C20.4212 39.3404 20.0515 40.0396 19.7816 40.7035C19.5117 41.3675 19.3768 41.9637 19.3768 42.4926C19.3768 43.2564 19.5058 43.8674 19.764 44.3257C20.0222 44.784 20.3478 45.1365 20.741 45.3833C21.134 45.6301 21.5624 45.7946 22.0259 45.8768C22.4894 45.9591 22.9207 46.0003 23.3198 46.0003C24.3289 46.0003 25.2501 45.8269 26.0833 45.4803C26.9165 45.1335 27.6704 44.6488 28.3452 44.0261C29.0199 43.4033 29.6243 42.6571 30.1583 41.7875C30.6922 40.9179 31.1674 39.9632 31.584 38.9232C32.0007 37.8833 32.3615 36.767 32.6666 35.5742C32.9716 34.3815 33.2358 33.1565 33.4587 31.8991L34.0219 27.9861C34.327 25.9884 34.6263 24.12 34.9197 22.3809C35.0371 21.6406 35.1602 20.8973 35.2894 20.1511C35.4184 19.405 35.5446 18.697 35.6678 18.0272C35.791 17.3574 35.9054 16.7581 36.0111 16.2293C36.1166 15.7005 36.2047 15.2834 36.2751 14.9779C36.3103 14.8368 36.3279 14.7134 36.3279 14.6077C36.3279 14.267 36.2047 14.0172 35.9582 13.8585C35.7118 13.7 35.4067 13.6206 35.0429 13.6206C34.7378 13.6206 34.4151 13.6735 34.0747 13.7793C33.7345 13.885 33.4088 14.0436 33.0979 14.2552C32.7869 14.4667 32.5111 14.7281 32.2706 15.0395C32.03 15.3509 31.8628 15.7064 31.7688 16.106L30.5367 21.2881C30.4897 21.6641 30.3871 22.1342 30.2287 22.6982C30.0702 23.2623 29.862 23.8086 29.6037 24.3375C29.3457 24.8662 29.0405 25.3186 28.6884 25.6947C28.3364 26.0707 27.9433 26.2588 27.509 26.2588C27.2392 26.2588 27.0162 26.1911 26.8402 26.0561C26.6642 25.9209 26.5233 25.7446 26.4178 25.5272C26.3121 25.3099 26.2388 25.063 26.1977 24.7869C26.1566 24.5108 26.1361 24.2258 26.1361 23.9321C26.1361 23.368 26.1831 22.7158 26.2769 21.9755C26.3708 21.2352 26.497 20.4803 26.6553 19.7106C26.8138 18.9409 26.9957 18.1888 27.201 17.4544C27.4064 16.72 27.6147 16.0825 27.8259 15.5419C27.8963 15.3657 27.9462 15.2011 27.9755 15.0484C28.0049 14.8956 28.0196 14.7545 28.0196 14.6254C28.0196 14.1905 27.8729 13.8703 27.5795 13.6647C27.2861 13.459 26.9341 13.3562 26.5233 13.3562C26.0422 13.3562 25.5493 13.4943 25.0447 13.7704C24.5402 14.0466 24.1529 14.449 23.8829 14.9779C23.5192 15.7182 23.1965 16.4496 22.9148 17.1723C22.6332 17.895 22.3985 18.6441 22.2108 19.4197C22.023 20.1953 21.8793 21.012 21.7795 21.8697C21.6797 22.7276 21.6299 23.6677 21.6299 24.69C21.6299 24.7139 21.63 24.7377 21.6302 24.7614C21.5729 24.7975 21.5153 24.8325 21.4574 24.8662C21.1758 25.0308 20.9 25.1658 20.6301 25.2716C20.3602 25.3774 20.102 25.4303 19.8556 25.4303C19.6209 25.4303 19.4214 25.2305 19.2571 24.8309C19.0928 24.4314 19.0106 23.9144 19.0106 23.2799C19.0106 22.4691 19.0517 21.7023 19.1339 20.9796C19.216 20.2569 19.3099 19.5431 19.4155 18.838C19.5211 18.1329 19.615 17.4161 19.6972 16.6876C19.7793 15.959 19.8204 15.1893 19.8204 14.3785C19.8204 13.8498 19.6296 13.4414 19.2483 13.1535C18.8669 12.8656 18.4004 12.7217 17.8489 12.7217C17.356 12.7217 16.9394 12.8833 16.5991 13.2064C16.2588 13.5295 15.9185 13.9262 15.5781 14.3961C15.2262 14.878 14.8477 15.4362 14.4428 16.0707C14.038 16.7052 13.6566 17.3103 13.2987 17.8862C12.9408 18.4619 12.6386 18.9526 12.3922 19.3579C12.1457 19.7634 12.0108 19.9837 11.9873 20.019L11.7937 19.8075C11.7937 19.784 11.7995 19.737 11.8113 19.6664C11.823 19.5959 11.8582 19.4256 11.9168 19.1553C11.999 18.7676 12.0871 18.3885 12.1809 18.0184C12.2748 17.6482 12.3657 17.2693 12.4538 16.8815C12.5417 16.4937 12.6151 16.0942 12.6737 15.6829C12.7324 15.2716 12.7618 14.8368 12.7618 14.3785C12.7618 13.8498 12.5858 13.4414 12.2337 13.1535C11.8816 12.8656 11.4592 12.7217 10.9663 12.7217C10.4383 12.7217 9.98352 12.8803 9.60217 13.1975C9.22082 13.5149 8.8599 13.9144 8.51964 14.3961C8.16757 14.878 7.79791 15.4332 7.41066 16.0618C7.02341 16.6906 6.6626 17.2928 6.32813 17.8686C5.99365 18.4443 5.71207 18.9379 5.48315 19.3492C5.25434 19.7605 5.12824 19.9837 5.10475 20.019L4.91112 19.8075C5.02847 19.0672 5.13993 18.3504 5.24559 17.6571C5.29247 17.3632 5.33651 17.0607 5.37759 16.7492C5.41868 16.4379 5.45681 16.1353 5.492 15.8415C5.52718 15.5477 5.55362 15.2716 5.57122 15.0131C5.58881 14.7545 5.59766 14.5254 5.59766 14.3256C5.59766 13.9613 5.58586 13.6735 5.56237 13.462C5.53898 13.2504 5.46555 13.0889 5.34241 12.9773C5.21915 12.8656 5.03143 12.7951 4.77912 12.7657C4.52682 12.7363 4.1777 12.7217 3.73177 12.7217C3.43838 12.7217 3.19777 12.7422 3.01005 12.7834C2.82232 12.8245 2.66093 12.9068 2.52599 13.0301C2.39104 13.1535 2.27073 13.3268 2.16518 13.5502C2.05951 13.7734 1.94806 14.073 1.8307 14.449C1.71335 14.8133 1.5843 15.2834 1.44345 15.8591C1.3026 16.435 1.1647 17.0695 1.02976 17.7628C0.894808 18.4561 0.765761 19.1817 0.642505 19.9397C0.519358 20.6976 0.410744 21.4408 0.316881 22.1693C0.223018 22.898 0.146749 23.5913 0.0880712 24.2493C0.0293935 24.9073 0 25.4773 0 25.959C0 26.4291 0.0264431 26.8844 0.0792203 27.3251C0.132107 27.7658 0.237661 28.1594 0.396102 28.5061C0.554543 28.8527 0.780403 29.1288 1.07379 29.3345C1.36718 29.5401 1.75443 29.6429 2.23555 29.6429C2.61111 29.6429 2.95432 29.5578 3.2653 29.3874C3.57628 29.217 3.84913 28.891 4.08384 28.4091C4.89353 26.7757 5.55363 25.4156 6.06402 24.3286C6.57453 23.2417 6.99402 22.3574 7.3227 21.6759C7.65127 20.9943 7.90642 20.4773 8.08835 20.1247C8.27029 19.7722 8.43157 19.5079 8.57242 19.3315H8.83641C8.64869 20.4126 8.49024 21.4233 8.3612 22.3633C8.30252 22.7628 8.24384 23.1653 8.18516 23.5707C8.12649 23.9761 8.07371 24.361 8.02672 24.7253C7.97985 25.0895 7.94455 25.4127 7.92117 25.6947ZM23.531 42.616C24.0238 42.616 24.4903 42.4721 24.9303 42.1841C25.3704 41.8962 25.7753 41.5173 26.1449 41.0472C26.5146 40.5772 26.8519 40.0426 27.157 39.4432C27.4622 38.8439 27.7321 38.2299 27.9668 37.6013C28.2015 36.9726 28.4009 36.3587 28.5652 35.7593C28.7295 35.16 28.8586 34.6253 28.9525 34.1553C28.4948 34.4609 28.0284 34.8252 27.5531 35.2481C27.0779 35.6712 26.6143 36.1266 26.1625 36.6142C25.7107 37.1019 25.2824 37.6042 24.8775 38.1213C24.4727 38.6382 24.1176 39.1348 23.8126 39.6106C23.5075 40.0866 23.2669 40.5301 23.0908 40.9414C22.9148 41.3527 22.8268 41.6935 22.8268 41.9637C22.8268 42.3985 23.0616 42.616 23.531 42.616Z" fill="white"/>
<path d="M56.5332 31.1914C56.3352 31.1914 56.1813 31.1363 56.0712 31.0264C55.9612 30.9163 55.9062 30.7733 55.9062 30.5974C55.9062 30.4654 55.9393 30.3334 56.0052 30.2014L68.479 8.91678C68.809 8.36672 69.249 8.0918 69.799 8.0918H73.6269C74.199 8.0918 74.529 8.36672 74.6169 8.91678L78.0488 30.2014C78.0708 30.2674 78.0818 30.3443 78.0818 30.4324C78.0818 30.6304 78.0269 30.7954 77.9168 30.9274C77.7629 31.1033 77.5649 31.1914 77.3229 31.1914H74.5179C73.968 31.1914 73.6599 30.9383 73.5939 30.4324L72.8679 26.5385H63.0671L60.6582 30.5644C60.3722 30.9823 60.0092 31.1914 59.5692 31.1914H56.5332ZM72.538 22.7435L70.954 12.5467L65.0141 22.7435H72.538ZM79.5324 31.1914C79.2904 31.1914 79.1143 31.1143 79.0044 30.9604C78.9163 30.8503 78.8724 30.7184 78.8724 30.5644C78.8724 30.5204 78.8833 30.4654 78.9054 30.3994L82.7993 12.1507H76.6945C76.4524 12.1507 76.2655 12.0737 76.1335 11.9197C76.0234 11.7657 75.9904 11.5787 76.0345 11.3587L76.5625 8.91678C76.6064 8.67475 76.7164 8.47675 76.8924 8.32279C77.0684 8.16872 77.2774 8.0918 77.5194 8.0918H94.3491C94.5911 8.0918 94.7781 8.16872 94.9101 8.32279C94.9981 8.43272 95.0421 8.56472 95.0421 8.71879C95.0421 8.78479 95.0311 8.85078 95.0091 8.91678L94.4811 11.3587C94.4371 11.6007 94.3161 11.7987 94.1181 11.9527C93.9421 12.0847 93.7441 12.1507 93.5242 12.1507H87.4193L83.5253 30.3994C83.4813 30.6413 83.3713 30.8393 83.1953 30.9934C83.0193 31.1254 82.8103 31.1914 82.5683 31.1914H79.5324Z" fill="white"/>
</svg>
