<svg width="14" height="16" viewBox="0 0 14 16" fill="none" xmlns="http://www.w3.org/2000/svg">
<path d="M13.3536 9.1406L1.9202 15.8274C1.72309 15.9426 1.50364 16 1.28418 16C1.27971 16 1.27532 15.9994 1.27093 15.9994C1.24144 15.9991 1.21202 15.9976 1.18268 15.9952C1.16943 15.9941 1.15625 15.9927 1.14299 15.9912C1.12006 15.9886 1.0972 15.9853 1.07441 15.9814C1.06614 15.98 1.0578 15.9795 1.04954 15.9779L1.04998 15.9773C0.907528 15.9504 0.768498 15.899 0.639298 15.8223C0.243581 15.5874 0 15.1547 0 14.6867V1.31329C0 0.845252 0.243581 0.412569 0.639298 0.177674C0.768424 0.100951 0.907454 0.0495243 1.04991 0.0226288L1.04954 0.0220947C1.05698 0.020647 1.0645 0.0201902 1.07188 0.0189714C1.09638 0.0147047 1.12095 0.011199 1.1456 0.00853252C1.15796 0.00716114 1.17025 0.00578976 1.18261 0.00479984C1.21158 0.00243759 1.24047 0.00106621 1.26951 0.000685692C1.27443 0.000609398 1.27927 0 1.28418 0C1.50364 0 1.72309 0.0574474 1.9202 0.172647L13.3536 6.85947C13.7533 7.0933 14 7.52819 14 7.99943C14 7.99943 14 7.99966 14 7.99973C14 7.99973 14 7.99996 14 8.00004C14 8.00004 14 8.00027 14 8.00034C14 8.00034 14 8.00057 14 8.00065C14 8.47181 13.7533 8.9067 13.3536 9.1406ZM8.83207 10.4685L7.69526 8.94266L4.80297 12.825L8.83207 10.4685ZM12.7992 7.8517L4.80297 3.17507L9.80967 9.8955L12.7991 8.14716C12.8509 8.11691 12.8831 8.06023 12.8831 7.9995C12.883 7.93855 12.8508 7.88187 12.7992 7.8517Z" fill="white"/>
</svg>
