<svg width="12" height="12" viewBox="0 0 12 12" fill="none" xmlns="http://www.w3.org/2000/svg">
<path d="M6 0C2.6914 0 0 2.69166 0 6C0 9.30834 2.6914 12 6 12C9.3086 12 12 9.30834 12 6C12 2.69166 9.3086 0 6 0ZM6 11.5C2.96728 11.5 0.499992 9.03272 0.499992 6C0.499992 2.96728 2.96728 0.499992 6 0.499992C9.03272 0.499992 11.5 2.96728 11.5 6C11.5 9.03272 9.03272 11.5 6 11.5Z" fill="#666666"/>
<path d="M8.38526 5.78984L4.88527 3.53984C4.8086 3.48981 4.70948 3.48711 4.63038 3.53056C4.5498 3.57451 4.5 3.65851 4.5 3.75006V8.25006C4.5 8.3416 4.5498 8.4256 4.63038 8.46955C4.66748 8.48982 4.70899 8.50006 4.75001 8.50006C4.79688 8.50006 4.84425 8.48687 4.88527 8.46027L8.38526 6.21027C8.45655 6.16438 8.50001 6.08502 8.50001 6.00006C8.50001 5.91509 8.45655 5.83576 8.38526 5.78984ZM4.99999 7.79204V4.20807L7.7876 6.00006L4.99999 7.79204Z" fill="#666666"/>
</svg>
