<svg width="13" height="12" viewBox="0 0 13 12" fill="none" xmlns="http://www.w3.org/2000/svg">
<path d="M12.3297 3.8V3.4H8.83628V0H8.42529V3.4H4.1099V0H3.69891V3.4H0V3.8H3.69891V5H2.63034C2.58924 5 2.54814 5 2.52759 5.02L0.965826 5.82C0.904178 5.86 0.863079 5.92 0.863079 6C0.863079 6.08 0.904178 6.14 0.965826 6.18L2.52759 6.98C2.56869 7 2.58924 7 2.63034 7H3.69891V8.2H0V8.6H3.69891V12H4.1099V8.6H8.42529V12H8.83628V8.6H12.3297V8.2H8.83628V7H11.3022C11.4255 7 11.5077 6.92 11.5077 6.8V5.2C11.5077 5.08 11.4255 5 11.3022 5H8.83628V3.8H12.3297ZM2.67143 5.4H9.86376V5.8H3.49341V6.2H9.86376V6.6H2.87693V5.8H2.46594V6.5L1.50011 6L2.67143 5.4ZM8.42529 8.2H4.1099V7H8.42529V8.2ZM11.0967 6.6H10.2747V5.4H11.0967V6.6ZM8.42529 5H4.1099V3.8H8.42529V5Z" fill="#666666"/>
<path d="M7.17161 9.69992L6.86337 9.41992L6.14413 10.1199L5.44545 9.41992L5.15776 9.71992L5.85644 10.3999L5.13721 11.0999L5.4249 11.3799L6.14413 10.6799L6.88392 11.3999L7.17161 11.1199L6.45238 10.3999L7.17161 9.69992Z" fill="#666666"/>
<path d="M10.8911 1H9.45264V1.4H10.8911V1Z" fill="#666666"/>
<path d="M11.9186 2H9.45264V2.4H11.9186V2Z" fill="#666666"/>
<path d="M1.84963 2.81996C2.52776 2.81996 3.06205 2.29996 3.06205 1.63996C3.06205 0.979961 2.52776 0.459961 1.84963 0.459961C1.17149 0.459961 0.637207 0.979961 0.637207 1.63996C0.637207 2.29996 1.17149 2.81996 1.84963 2.81996ZM1.84963 0.859961C2.30172 0.859961 2.65106 1.19996 2.65106 1.63996C2.65106 2.07996 2.30172 2.41996 1.84963 2.41996C1.39754 2.41996 1.0482 2.07996 1.0482 1.63996C1.0482 1.19996 1.39754 0.859961 1.84963 0.859961Z" fill="#666666"/>
</svg>
