<svg width="17" height="22" viewBox="0 0 17 22" fill="none" xmlns="http://www.w3.org/2000/svg">
<path d="M12.2595 2.66641H12.0595V2.86642V5.4768V5.6768H12.2595H15.5728C16.2397 5.6768 16.8002 6.23841 16.8002 6.91C16.8002 7.5816 16.2397 8.14321 15.5729 8.14321H11.968H11.8172L11.7757 8.28812C11.6564 8.70431 11.4962 9.10987 11.3105 9.51063L11.492 9.59471L11.3105 9.51063C10.762 10.6945 9.86095 11.6887 8.794 12.442C7.70598 13.2102 6.40004 13.6275 5.07059 13.7291C4.9204 13.7406 4.76901 13.7477 4.61651 13.7517L4.15843 13.764L4.47888 14.0915L9.96421 19.6985L9.96451 19.6988C10.4353 20.178 10.4393 20.9685 9.96546 21.4444L10.1072 21.5855L9.96545 21.4444C9.4954 21.9164 8.69805 21.9204 8.23136 21.4453L8.2304 21.4444L8.22994 21.4439L8.22877 21.4427L0.563806 13.6172L0.563589 13.617C0.328537 13.3778 0.2 13.0647 0.2 12.7283V12.515C0.2 11.8434 0.76048 11.2818 1.4273 11.2818H3.43599C3.57122 11.2818 3.70707 11.2831 3.84427 11.2844L3.84965 11.2844C4.31145 11.2888 4.78891 11.2933 5.26165 11.246L5.26169 11.2465L5.27516 11.2442C5.70581 11.1712 6.12754 11.0554 6.53517 10.8978L6.53532 10.8982L6.54695 10.8928C6.93611 10.713 7.30621 10.4956 7.65308 10.2434L7.65331 10.2437L7.66292 10.2358C7.99148 9.96409 8.29277 9.66157 8.56332 9.33169L8.56362 9.33193L8.5709 9.32184C8.77402 9.04016 8.95449 8.74323 9.11082 8.43327L9.25712 8.14321H8.93225H1.4273C0.760478 8.14321 0.2 7.5816 0.2 6.91C0.2 6.2384 0.760478 5.6768 1.4273 5.6768H9.40564H9.60686L9.60564 5.47558C9.6052 5.4037 9.60488 5.33214 9.60488 5.26079V2.86642V2.66641H9.40488H1.42727C0.760457 2.66641 0.2 2.10481 0.2 1.43321C0.2 0.761608 0.760478 0.2 1.4273 0.2H15.5728C16.2396 0.2 16.8001 0.76161 16.8001 1.43321C16.8001 2.10481 16.2396 2.66641 15.5728 2.66641H12.2595Z" fill="#767676" stroke="white" stroke-width="0.4"/>
</svg>
