<svg width="20" height="25" viewBox="0 0 20 25" fill="none" xmlns="http://www.w3.org/2000/svg">
<path fill-rule="evenodd" clip-rule="evenodd" d="M19.3765 13.0125C17.6795 18.2349 12.0761 21.0949 6.8607 19.4003C6.46469 19.2716 6.08234 19.1204 5.71462 18.9485C5.72369 18.879 5.73268 18.809 5.74185 18.7385C5.87843 17.6847 6.02859 16.5259 6.42486 15.4404C6.89004 15.7424 7.40193 15.9893 7.95443 16.1688C11.3586 17.2748 15.016 15.4081 16.1236 11.9993C17.2313 8.5905 15.3695 4.93046 11.9654 3.82438C8.56114 2.71831 4.90366 4.58503 3.79609 7.99384C3.33002 9.42798 3.38968 10.9067 3.86861 12.2209C2.91463 13.2539 2.26149 14.4679 1.81525 15.6777C0.077366 13.206 -0.51647 9.97326 0.48994 6.87587C2.18685 1.65339 7.79027 -1.20653 13.0057 0.488007C18.221 2.18263 21.0734 7.79002 19.3765 13.0125Z" fill="white"/>
<path fill-rule="evenodd" clip-rule="evenodd" d="M1.57401 24.9981C1.37036 24.9981 1.20981 24.8294 1.22796 24.6266C1.38579 22.8589 2.24327 15.2336 5.52607 11.593C8.11942 8.71686 8.80798 8.39232 8.98686 8.46105C9.08556 8.49894 9.0163 8.64152 8.96008 8.73114C8.57676 9.34216 6.987 11.9696 5.7892 15.3565C4.63298 18.6259 4.95726 23.2359 5.0875 24.6021C5.10759 24.813 4.94237 24.9983 4.73053 24.9983L1.57401 24.9981Z" fill="white"/>
</svg>
